<svg xmlns="http://www.w3.org/2000/svg" enable-background="new 0 0 24 24" viewBox="0 0 24 24" id="x-pack"><path d="M19.595 13.663l-5.892 5.902 3.357 3.357c.647.647 1.542 1.048 2.53 1.048.988 0 1.883-.401 2.53-1.048l.832-.832C23.599 21.443 24 20.548 24 19.56c0-.988-.401-1.883-1.048-2.53L19.595 13.663zM22.942 1.88L22.11 1.048C21.463.401 20.568 0 19.58 0c-.988 0-1.883.401-2.53 1.048L12 6.108l-5.06-5.06C6.293.401 5.398 0 4.41 0S2.527.401 1.88 1.048L1.048 1.88C.401 2.527 0 3.422 0 4.41c0 .988.401 1.883 1.048 2.53L6.108 12l-5.06 5.06C.401 17.707 0 18.602 0 19.59s.401 1.883 1.048 2.53l.832.832C2.527 23.599 3.422 24 4.41 24s1.883-.401 2.53-1.048L22.952 6.94C23.599 6.293 24 5.398 24 4.41c0-.988-.401-1.883-1.048-2.53H22.942z"></path></svg>